<svg xmlns="http://www.w3.org/2000/svg" viewBox="0 0 1200 800" role="img" aria-label="Fluent geometric blue wallpaper">
  <defs>
    <linearGradient id="sky" x1="0" y1="0" x2="1" y2="1">
      <stop offset="0" stop-color="#eef6ff"/>
      <stop offset="0.52" stop-color="#d8e7f4"/>
      <stop offset="1" stop-color="#f8f3ea"/>
    </linearGradient>
    <radialGradient id="orb" cx="0.25" cy="0.22" r="0.56">
      <stop offset="0" stop-color="#60cdff" stop-opacity="0.64"/>
      <stop offset="1" stop-color="#60cdff" stop-opacity="0"/>
    </radialGradient>
  </defs>
  <rect width="1200" height="800" fill="url(#sky)"/>
  <rect width="1200" height="800" fill="url(#orb)"/>
  <path d="M-80 580 C220 450 375 720 660 560 S990 395 1290 500 V800 H-80 Z" fill="#005a9e" opacity="0.16"/>
  <path d="M760 20 h310 a70 70 0 0 1 70 70 v310 a70 70 0 0 1-70 70 H760 a70 70 0 0 1-70-70 V90 a70 70 0 0 1 70-70Z" fill="#ffffff" opacity="0.34"/>
  <path d="M90 110 h230 a42 42 0 0 1 42 42 v230 a42 42 0 0 1-42 42 H90 a42 42 0 0 1-42-42 V152 a42 42 0 0 1 42-42Z" fill="#0f6c6c" opacity="0.13"/>
</svg>
