<svg xmlns="http://www.w3.org/2000/svg" viewBox="0 0 1200 800" role="img" aria-label="Air mist and color field wallpaper">
  <defs>
    <linearGradient id="base" x1="0" y1="0" x2="1" y2="1">
      <stop offset="0" stop-color="#f8fbff"/>
      <stop offset="0.4" stop-color="#dbeefd"/>
      <stop offset="1" stop-color="#fff1d8"/>
    </linearGradient>
    <filter id="soft" x="-20%" y="-20%" width="140%" height="140%">
      <feGaussianBlur stdDeviation="28"/>
    </filter>
  </defs>
  <rect width="1200" height="800" fill="url(#base)"/>
  <g filter="url(#soft)" opacity="0.78">
    <circle cx="260" cy="250" r="190" fill="#60cdff"/>
    <circle cx="700" cy="160" r="230" fill="#f2c94c" opacity="0.52"/>
    <circle cx="920" cy="520" r="260" fill="#0f6c6c" opacity="0.42"/>
    <circle cx="455" cy="610" r="210" fill="#ffffff" opacity="0.72"/>
  </g>
  <path d="M0 620 C180 510 320 650 520 560 C760 452 870 315 1200 430 V800 H0 Z" fill="#ffffff" opacity="0.34"/>
  <path d="M780 96 h250 a82 82 0 0 1 82 82 v250 a82 82 0 0 1-82 82 H780 a82 82 0 0 1-82-82 V178 a82 82 0 0 1 82-82Z" fill="#ffffff" opacity="0.24"/>
</svg>
